<svg xmlns="http://www.w3.org/2000/svg" style="display: none;">

    <symbol xmlns="http://www.w3.org/2000/svg" viewBox="0 0 18 9" fill="none" id="icon-arrow-down">
        <path d="M16.9201 0.950195L10.4001 7.47019C9.6301 8.24019 8.3701 8.24019 7.6001 7.47019L1.08008 0.950195" stroke="currentColor" stroke-width="1.5" stroke-miterlimit="10" stroke-linecap="round" stroke-linejoin="round"/>
    </symbol>

    <symbol xmlns="http://www.w3.org/2000/svg" viewBox="0 0 6 12" fill="none" id="icon-arrow-right">
        <path d="M1 1L4.67453 5.11616C5.10849 5.60227 5.10849 6.39772 4.67453 6.88383L1 11" stroke="currentColor" stroke-width="1.5" stroke-miterlimit="10" stroke-linecap="round" stroke-linejoin="round"/>
    </symbol>

    <symbol xmlns="http://www.w3.org/2000/svg" viewBox="0 0 24 25" fill="none" id="icon-bordered-arrow-down">
        <path opacity="0.4" d="M15 2.5L9 2.5C4 2.5 2 4.5 2 9.5L2 15.5C2 20.5 4 22.5 9 22.5L15 22.5C20 22.5 22 20.5 22 15.5L22 9.5C22 4.5 20 2.5 15 2.5Z" stroke="currentColor" stroke-width="1.5" stroke-linecap="round" stroke-linejoin="round"/>
        <path opacity="0.4" d="M16.0298 10.7398L12.4998 14.2598L8.96979 10.7398" stroke="currentColor" stroke-width="2" stroke-linecap="round" stroke-linejoin="round"/>
    </symbol>

    <symbol xmlns="http://www.w3.org/2000/svg" width="55" height="55" viewBox="0 0 55 55" fill="none" id="icon-electric-energy">
        <path d="M38.3534 8.85254C38.1515 8.06972 37.1727 7.80289 36.6016 8.3743L32.4129 12.563C22.7984 9.53311 12.7179 16.705 12.7179 27.039C12.719 29.829 13.4956 32.5498 14.9638 34.9075C15.2689 35.3977 15.9138 35.5476 16.4039 35.2424C16.8941 34.9372 17.044 34.2923 16.7387 33.8021C14.6204 30.4004 14.8072 27.0192 14.8087 27.0296C14.8107 18.5593 22.7266 12.4738 30.7094 14.2665L27.3082 17.6677C26.7365 18.2394 27.0042 19.2177 27.7865 19.4194L40.3085 22.6483C41.0794 22.8473 41.7803 22.144 41.5822 21.3747L38.3534 8.85254ZM30.0816 17.8516L36.7855 11.1476L39.1147 20.1808L30.0816 17.8516Z" fill="#333333"/>
        <path d="M27.5 0.749023C12.7625 0.749023 0.837891 12.6759 0.837891 27.4111C0.837891 42.1485 12.7647 54.0732 27.5 54.0732C42.2375 54.0732 54.1621 42.1464 54.1621 27.4111C54.1621 12.6738 42.2353 0.749023 27.5 0.749023ZM27.5 51.9821C13.9516 51.9821 2.92904 40.9597 2.92904 27.4111C2.92904 13.8626 13.9516 2.84017 27.5 2.84017C41.0484 2.84017 52.071 13.8626 52.071 27.4111C52.071 40.9597 41.0484 51.9821 27.5 51.9821Z" fill="#333333"/>
        <path d="M34.2964 31.0706H29.1491L31.085 26.2311C31.3595 25.5445 30.8526 24.7972 30.1141 24.7972H24.8862C24.4587 24.7972 24.0741 25.0574 23.9154 25.4544L19.7331 35.9101C19.4586 36.5967 19.9654 37.344 20.7039 37.344H24.5926L22.8262 44.4095C22.7079 44.8825 22.9325 45.3746 23.3672 45.5954C23.8014 45.8157 24.331 45.7078 24.6439 45.3324L35.0996 32.7856C35.6665 32.1051 35.1804 31.0706 34.2964 31.0706Z" fill="#333333"/>
    </symbol>

    <symbol xmlns="http://www.w3.org/2000/svg" viewBox="0 0 73 73" fill="none" id="icon-electric-energy-fill">
        <rect width="73" height="73" rx="12" fill="#CFEEEF"/>
        <path d="M47.3534 17.9413C47.1515 17.1585 46.1727 16.8917 45.6016 17.4631L41.4129 21.6518C31.7984 18.6219 21.7179 25.7938 21.7179 36.1278C21.719 38.9178 22.4956 41.6386 23.9638 43.9963C24.2689 44.4864 24.9138 44.6364 25.4039 44.3312C25.8941 44.026 26.044 43.3811 25.7387 42.8909C23.6204 39.4892 23.8072 36.1079 23.8087 36.1184C23.8107 27.6481 31.7266 21.5626 39.7094 23.3553L36.3082 26.7564C35.7365 27.3282 36.0042 28.3065 36.7865 28.5082L49.3085 31.737C50.0794 31.9361 50.7803 31.2328 50.5822 30.4635L47.3534 17.9413ZM39.0816 26.9404L45.7855 20.2364L48.1147 29.2696L39.0816 26.9404Z" fill="#333333"/>
        <path d="M36.5 9.83789C21.7625 9.83789 9.83789 21.7647 9.83789 36.5C9.83789 51.2374 21.7647 63.1621 36.5 63.1621C51.2375 63.1621 63.1621 51.2353 63.1621 36.5C63.1621 21.7626 51.2353 9.83789 36.5 9.83789ZM36.5 61.071C22.9516 61.071 11.929 50.0485 11.929 36.5C11.929 22.9515 22.9516 11.929 36.5 11.929C50.0484 11.929 61.071 22.9515 61.071 36.5C61.071 50.0485 50.0484 61.071 36.5 61.071Z" fill="#333333"/>
        <path d="M43.2964 40.1594H38.1491L40.085 35.3199C40.3595 34.6334 39.8526 33.886 39.1141 33.886H33.8862C33.4587 33.886 33.0741 34.1462 32.9154 34.5432L28.7331 44.999C28.4586 45.6855 28.9654 46.4329 29.7039 46.4329H33.5926L31.8262 53.4983C31.7079 53.9713 31.9325 54.4634 32.3672 54.6842C32.8014 54.9045 33.331 54.7966 33.6439 54.4212L44.0996 41.8744C44.6665 41.1939 44.1804 40.1594 43.2964 40.1594Z" fill="#333333"/>
    </symbol>

</svg>
